<svg width="97" height="26" viewBox="0 0 97 26" fill="none" xmlns="http://www.w3.org/2000/svg">
<g clip-path="url(#clip0_99_50)">
<mask id="mask0_99_50" style="mask-type:luminance" maskUnits="userSpaceOnUse" x="0" y="0" width="96" height="26">
<path d="M0.645996 0H95.9876V25.572H0.645996V0Z" fill="white"/>
</mask>
<g mask="url(#mask0_99_50)">
<path d="M9.18957 8.524H0.645996V17.048L9.18957 25.572V17.048H17.7332L9.18957 8.524H17.7332V0H0.645996L9.18957 8.524ZM30.7241 19.8372H33.5767V13.7047H40.3736V11.318H33.5767V7.46797H40.8815V5.02443H30.7241V19.8372ZM47.2417 9.24854C46.5487 9.24854 45.9982 9.40482 45.5852 9.71736C45.1723 10.0299 44.8732 10.494 44.6786 11.1096H44.6502V9.33852H42.0206V19.8372H44.7498V14.022C44.7498 13.4774 44.84 13.0275 45.0251 12.6629C45.2103 12.303 45.4571 12.033 45.7798 11.8531C46.1026 11.6731 46.4586 11.5832 46.8573 11.5832C47.2662 11.5812 47.6749 11.6001 48.0818 11.64V9.28169C47.9774 9.27696 47.854 9.26748 47.7116 9.25801C47.574 9.24854 47.4173 9.24381 47.2417 9.24381V9.24854ZM56.4071 10.7923H56.3786C56.1759 10.4355 55.9049 10.1217 55.5812 9.8689C55.2594 9.62105 54.8963 9.43187 54.5085 9.3101C54.1146 9.18224 53.6874 9.12068 53.227 9.12068C52.3299 9.12068 51.5372 9.35273 50.8538 9.81207C50.1703 10.2714 49.6339 10.9107 49.2542 11.73C48.8745 12.5492 48.6799 13.4963 48.6799 14.576C48.6799 15.6558 48.8697 16.6265 49.2495 17.4505C49.6292 18.2745 50.1608 18.9138 50.8443 19.3684C51.5278 19.823 52.3299 20.0551 53.246 20.0551C53.7064 20.0551 54.1335 19.9888 54.5275 19.8515C54.9214 19.7141 55.2774 19.5152 55.5954 19.2548C55.9135 18.9943 56.1698 18.6628 56.3786 18.265H56.4166V19.8372H59.0793V9.33852H56.4071V10.7923ZM56.1935 16.2903C55.9752 16.7733 55.6761 17.1475 55.2869 17.4126C54.8977 17.6778 54.4421 17.8104 53.9152 17.8104C53.4216 17.8104 52.9897 17.6826 52.6194 17.4316C52.2492 17.1806 51.9597 16.8112 51.7508 16.3329C51.5467 15.8546 51.4423 15.2674 51.4423 14.576C51.4423 13.8847 51.5467 13.2927 51.7508 12.8144C51.9549 12.3361 52.2445 11.9715 52.6194 11.7205C52.9944 11.4695 53.4216 11.3417 53.9152 11.3417C54.4421 11.3417 54.8977 11.4743 55.2869 11.7394C55.6761 12.0046 55.9799 12.3787 56.1935 12.8618C56.4118 13.3448 56.5163 13.9178 56.5163 14.5713C56.5163 15.2248 56.4071 15.7978 56.1935 16.2808V16.2903ZM75.0511 9.56109C74.5195 9.27222 73.9214 9.13015 73.2569 9.13015C72.6731 9.13015 72.1368 9.23434 71.6526 9.43797C71.1791 9.63345 70.7569 9.93479 70.4185 10.3188C70.2002 10.565 70.0293 10.8397 69.8964 11.138C69.7234 10.6121 69.394 10.1513 68.9519 9.81681C68.3586 9.35746 67.6609 9.13015 66.8587 9.13015C66.3651 9.13015 65.8999 9.22013 65.4538 9.40482C65.0076 9.58477 64.6184 9.8689 64.2814 10.243C64.0393 10.5129 63.84 10.835 63.6786 11.2043V9.33852H61.0491V19.8372H63.7783V13.6005C63.7783 13.1222 63.8685 12.7197 64.0488 12.393C64.2292 12.0662 64.4713 11.8152 64.7703 11.6495C65.0741 11.479 65.4016 11.3937 65.7623 11.3937C66.3081 11.3937 66.7496 11.5595 67.0866 11.8957C67.4236 12.2319 67.5944 12.6818 67.5944 13.2406V19.8325H70.2334V13.449C70.2334 13.0465 70.3141 12.6866 70.4708 12.374C70.6274 12.0615 70.8552 11.82 71.1448 11.6495C71.4343 11.479 71.7808 11.389 72.1842 11.389C72.6968 11.389 73.1335 11.5453 73.499 11.8626C73.8645 12.1751 74.0448 12.6676 74.0448 13.3401V19.8325H76.7645V12.8902C76.7645 12.0757 76.6079 11.389 76.2994 10.8255C75.9909 10.2667 75.5684 9.84049 75.0368 9.55162L75.0511 9.56109ZM87.069 10.6219C86.6189 10.1377 86.0703 9.75506 85.46 9.49953C84.8335 9.23434 84.1357 9.10174 83.3668 9.10174C82.3701 9.10174 81.4872 9.33852 80.7231 9.80734C79.9541 10.2762 79.3561 10.9297 78.9194 11.7584C78.4827 12.5871 78.2644 13.5342 78.2644 14.5997C78.2644 15.6652 78.478 16.6029 78.9004 17.4268C79.3276 18.2508 79.9304 18.8996 80.7088 19.3684C81.4872 19.8372 82.408 20.074 83.4665 20.074C84.3019 20.074 85.066 19.9225 85.759 19.6241C86.452 19.3258 87.0216 18.9138 87.4772 18.3882C87.9329 17.8625 88.2272 17.2516 88.3601 16.565H85.8397C85.7448 16.8444 85.5976 17.0906 85.3888 17.3037C85.18 17.5168 84.9236 17.6873 84.6104 17.8057C84.2971 17.9241 83.9411 17.9856 83.5424 17.9856C82.9824 17.9856 82.5125 17.8673 82.1233 17.6257C81.734 17.389 81.435 17.0527 81.2309 16.6218C81.0458 16.2335 80.9461 15.7836 80.9272 15.2816H88.4645V14.5476C88.4645 13.7473 88.3411 13.0133 88.099 12.3456C87.8569 11.6779 87.5105 11.1049 87.0643 10.6219H87.069ZM80.9509 13.4869C80.9936 13.1175 81.0838 12.7813 81.2309 12.4877C81.435 12.0804 81.7245 11.7631 82.0995 11.5406C82.4745 11.318 82.9159 11.2091 83.419 11.2091C83.9221 11.2091 84.3826 11.318 84.7528 11.5406C85.123 11.7631 85.4125 12.0757 85.6166 12.4877C85.7638 12.7813 85.854 13.1175 85.8967 13.4869H80.9509ZM95.6174 9.26275C95.4797 9.25328 95.3231 9.24854 95.1475 9.24854C94.4545 9.24854 93.9039 9.40482 93.491 9.71736C93.078 10.0299 92.779 10.494 92.5844 11.1096H92.5559V9.33852H89.9264V19.8372H92.6556V14.022C92.6556 13.4774 92.7458 13.0275 92.9309 12.6629C93.1112 12.303 93.3628 12.033 93.6808 11.8531C93.9988 11.6731 94.3596 11.5832 94.7583 11.5832C95.1672 11.5812 95.5759 11.6001 95.9828 11.64V9.28169C95.8784 9.27696 95.755 9.26748 95.6126 9.25801L95.6174 9.26275Z" fill="black"/>
</g>
</g>
<defs>
<clipPath id="clip0_99_50">
<rect width="95.4033" height="25.572" fill="white" transform="translate(0.645996)"/>
</clipPath>
</defs>
</svg>
