<svg width="72" height="30" viewBox="0 0 72 30" fill="none" xmlns="http://www.w3.org/2000/svg">
<path d="M5.63578 11.5769C5.63578 10.8078 6.26689 10.5119 7.31217 10.5119C8.81106 10.5119 10.7044 10.9656 12.2033 11.7742V7.13944C10.5663 6.48861 8.94911 6.23222 7.31217 6.23222C3.30856 6.23222 0.646057 8.32278 0.646057 11.8136C0.646057 17.2569 8.1405 16.3892 8.1405 18.7361C8.1405 19.6433 7.35161 19.9392 6.24717 19.9392C4.61022 19.9392 2.51967 19.2686 0.863002 18.3614V23.0553C2.69717 23.8442 4.55106 24.1794 6.24717 24.1794C10.3494 24.1794 13.1697 22.1481 13.1697 18.6178C13.1499 12.7406 5.63578 13.7858 5.63578 11.5769ZM18.968 2.28778L14.1558 3.31333L14.1361 19.1108C14.1361 22.0297 16.3252 24.1794 19.2441 24.1794C20.8613 24.1794 22.0447 23.8836 22.6955 23.5286V19.525C22.0644 19.7814 18.9483 20.6886 18.9483 17.7697V10.7683H22.6955V6.5675H18.9483L18.968 2.28778ZM28.8291 8.02694L28.5136 6.5675H24.2536V23.8244H29.1841V12.1292C30.3477 10.6106 32.3199 10.8867 32.9313 11.1036V6.5675C32.3002 6.33083 29.9927 5.89694 28.8291 8.02694ZM34.1344 6.5675H39.0847V23.8244H34.1344V6.5675ZM34.1344 5.06861L39.0847 4.00361V0L34.1344 1.04528V5.06861ZM49.3797 6.23222C47.4469 6.23222 46.2044 7.13944 45.5141 7.77056L45.2577 6.54778H40.9188V29.5439L45.8494 28.4986L45.8691 22.9172C46.5791 23.43 47.6244 24.1597 49.3599 24.1597C52.8902 24.1597 56.1049 21.3197 56.1049 15.0678C56.0852 9.34833 52.8311 6.23222 49.3797 6.23222ZM48.1963 19.8208C47.0327 19.8208 46.3424 19.4067 45.8691 18.8939L45.8494 11.5769C46.3622 11.005 47.0722 10.6106 48.1963 10.6106C49.9911 10.6106 51.2336 12.6222 51.2336 15.2058C51.2336 17.8486 50.0108 19.8208 48.1963 19.8208ZM71.6461 15.265C71.6461 10.2161 69.2005 6.23222 64.5263 6.23222C59.8324 6.23222 56.9924 10.2161 56.9924 15.2256C56.9924 21.1619 60.3452 24.1597 65.1574 24.1597C67.5044 24.1597 69.2794 23.6272 70.6205 22.8778V18.9333C69.2794 19.6039 67.7411 20.0181 65.7886 20.0181C63.8755 20.0181 62.1794 19.3475 61.9624 17.0203H71.6066C71.6066 16.7639 71.6461 15.7383 71.6461 15.265ZM61.9033 13.3914C61.9033 11.1628 63.2641 10.2358 64.5066 10.2358C65.7097 10.2358 66.9916 11.1628 66.9916 13.3914H61.9033Z" fill="#6772E5"/>
</svg>
