<svg width="141" height="49" viewBox="0 0 141 49" fill="none" xmlns="http://www.w3.org/2000/svg">
<path d="M20.1138 36.499C18.7325 35.255 18.3293 32.6414 18.9047 30.748C19.9026 31.9417 21.2852 32.32 22.7173 32.5333C24.9281 32.8628 27.0994 32.7396 29.1531 31.7441C29.3881 31.6302 29.6052 31.4784 29.8619 31.3251C30.0547 31.8757 30.1048 32.4317 30.0375 32.9977C29.8738 34.376 29.1776 35.4408 28.0702 36.2478C27.6274 36.5707 27.1588 36.8592 26.7014 37.1637C25.2964 38.099 24.9162 39.196 25.4442 40.7918C25.4568 40.8306 25.468 40.8695 25.4964 40.9644C24.779 40.6481 24.255 40.1876 23.8557 39.5821C23.434 38.943 23.2334 38.236 23.2228 37.4713C23.2175 37.099 23.2175 36.7234 23.1667 36.3565C23.0427 35.4619 22.6163 35.0613 21.8132 35.0381C20.9889 35.0146 20.3368 35.5164 20.1639 36.3071C20.1507 36.3676 20.1316 36.4276 20.1124 36.4981L20.1138 36.499Z" fill="#17191E"/>
<path d="M12.2301 30.4323C12.2301 30.4323 16.3203 28.4695 20.4219 28.4695L23.5144 19.0411C23.6302 18.5851 23.9683 18.2752 24.3499 18.2752C24.7316 18.2752 25.0696 18.5851 25.1854 19.0411L28.2779 28.4695C33.1356 28.4695 36.4698 30.4323 36.4698 30.4323C36.4698 30.4323 29.5222 11.7872 29.5086 11.7498C29.3092 11.1985 28.9726 10.8435 28.5188 10.8435H20.1818C19.728 10.8435 19.4049 11.1985 19.192 11.7498C19.1769 11.7865 12.2301 30.4323 12.2301 30.4323Z" fill="#17191E"/>
<path d="M55.3543 24.4349C55.3543 26.0871 53.2682 27.0738 50.3797 27.0738C48.4997 27.0738 47.835 26.6149 47.835 25.6511C47.835 24.6414 48.6602 24.1595 50.54 24.1595C52.2366 24.1595 53.6807 24.1824 55.3543 24.389V24.4349ZM55.3773 22.3926C54.3457 22.1631 52.7866 22.0254 50.9298 22.0254C45.5195 22.0254 42.975 23.2875 42.975 26.2248C42.975 29.2768 44.7172 30.4471 48.7519 30.4471C52.1678 30.4471 54.4829 29.598 55.3314 27.5098H55.4687C55.4458 28.0147 55.4228 28.5195 55.4228 28.9096C55.4228 29.9881 55.6063 30.0799 56.5003 30.0799H60.7185C60.4891 29.4374 60.3516 27.6245 60.3516 26.0641C60.3516 24.389 60.4203 23.1269 60.4203 21.4288C60.4203 17.9638 58.3116 15.7608 51.7092 15.7608C48.8666 15.7608 45.703 16.2427 43.2961 16.9541C43.5251 17.8949 43.8461 19.7995 44.0066 21.0387C46.0928 20.0749 49.05 19.6618 51.3426 19.6618C54.5059 19.6618 55.3773 20.3732 55.3773 21.8189V22.3926Z" fill="#17191E"/>
<path d="M66.9509 25.3987C66.3779 25.4675 65.5983 25.4675 64.796 25.4675C63.9478 25.4675 63.1685 25.4446 62.641 25.3757C62.641 25.5593 62.6181 25.7658 62.6181 25.9494C62.6181 28.8178 64.5208 30.4929 71.2149 30.4929C77.5189 30.4929 79.5592 28.8408 79.5592 25.9264C79.5592 23.1728 78.2069 21.8189 72.2236 21.5206C67.5698 21.314 67.1573 20.8092 67.1573 20.2355C67.1573 19.5701 67.7532 19.2258 70.871 19.2258C74.1034 19.2258 74.9745 19.6618 74.9745 20.5797V20.7863C75.4328 20.7633 76.2583 20.7404 77.1065 20.7404C77.9088 20.7404 78.7799 20.7633 79.2844 20.8092C79.2844 20.6027 79.3073 20.4191 79.3073 20.2585C79.3073 16.8852 76.4644 15.7838 70.9627 15.7838C64.773 15.7838 62.6869 17.2753 62.6869 20.1896C62.6869 22.8056 64.3606 24.4349 70.298 24.6873C74.6764 24.825 75.1579 25.3069 75.1579 25.9723C75.1579 26.6837 74.4471 27.005 71.3755 27.005C67.8449 27.005 66.9509 26.5231 66.9509 25.5364V25.3987Z" fill="#17191E"/>
<path d="M87.1257 13.3054C85.4523 14.8429 82.4492 16.3804 80.7758 16.7934C80.7987 17.6425 80.7987 19.2029 80.7987 20.0519L82.3345 20.0749C82.3116 21.7041 82.2887 23.6776 82.2887 24.9856C82.2887 28.0376 83.9162 30.3323 88.9825 30.3323C91.1145 30.3323 92.536 30.1028 94.3011 29.7357C94.1176 28.6113 93.9112 26.8902 93.8424 25.5822C92.7879 25.9264 91.4585 26.11 89.9912 26.11C87.9509 26.11 87.1257 25.5593 87.1257 23.9759C87.1257 22.5991 87.1257 21.314 87.1486 20.1208C89.7622 20.1437 92.3754 20.1896 93.9112 20.2355C93.8883 19.0422 93.9342 17.3212 94.003 16.1738C91.7792 16.2197 89.2806 16.2427 87.2174 16.2427C87.2403 15.233 87.2633 14.2692 87.2862 13.3054H87.1257Z" fill="#17191E"/>
<path d="M100.818 19.3635C100.84 18.1702 100.863 17.1606 100.886 16.1738H96.2783C96.3471 18.1473 96.3471 20.1667 96.3471 23.1268C96.3471 26.087 96.3242 28.1294 96.2783 30.0799H101.551C101.459 28.703 101.436 26.3854 101.436 24.4119C101.436 21.2911 102.72 20.3961 105.632 20.3961C106.984 20.3961 107.947 20.5568 108.795 20.8551C108.818 19.6848 109.047 17.413 109.185 16.4033C108.314 16.1509 107.351 15.9903 106.182 15.9903C103.683 15.9673 101.849 16.977 101.001 19.3864L100.818 19.3635Z" fill="#17191E"/>
<path d="M123.771 23.0351C123.771 25.5363 121.937 26.7066 119.049 26.7066C116.183 26.7066 114.349 25.6052 114.349 23.0351C114.349 20.465 116.206 19.5012 119.049 19.5012C121.914 19.5012 123.771 20.5338 123.771 23.0351ZM128.562 22.9203C128.562 17.9408 124.619 15.7149 119.049 15.7149C113.455 15.7149 109.65 17.9408 109.65 22.9203C109.65 27.877 113.203 30.539 119.026 30.539C124.894 30.539 128.562 27.877 128.562 22.9203Z" fill="#17191E"/>
</svg>
