<svg width="109" height="31" viewBox="0 0 109 31" fill="none" xmlns="http://www.w3.org/2000/svg">
<path d="M0 6.95556C0 3.11416 3.11416 0 6.95556 0H23.4827C27.3243 0 30.4384 3.11416 30.4384 6.95556V23.4827C30.4384 27.3243 27.3243 30.4384 23.4827 30.4384H6.95556C3.11416 30.4384 0 27.3243 0 23.4827V6.95556Z" fill="black"/>
<path d="M8.08524 22.3532C8.08524 20.3832 9.68225 18.7861 11.6523 18.7861H15.2191V22.3532C15.2191 24.3232 13.6223 25.9202 11.6523 25.9202C9.68225 25.9202 8.08524 24.3232 8.08524 22.3532Z" fill="#24CB71"/>
<path d="M15.2191 4.51819V11.6521H18.7861C20.7561 11.6521 22.3532 10.0552 22.3532 8.08521C22.3532 6.11521 20.7561 4.51819 18.7861 4.51819H15.2191Z" fill="#FF7237"/>
<path d="M18.7566 18.7861C20.7266 18.7861 22.3236 17.1891 22.3236 15.2191C22.3236 13.2492 20.7266 11.6522 18.7566 11.6522C16.7866 11.6522 15.1896 13.2492 15.1896 15.2191C15.1896 17.1891 16.7866 18.7861 18.7566 18.7861Z" fill="#00B6FF"/>
<path d="M8.08524 8.08521C8.08524 10.0552 9.68225 11.6522 11.6523 11.6522H15.2191V4.51819H11.6523C9.68225 4.51819 8.08524 6.11521 8.08524 8.08521Z" fill="#FF3737"/>
<path d="M8.08524 15.2191C8.08524 17.1891 9.68225 18.7862 11.6523 18.7862H15.2191V11.6523H11.6523C9.68225 11.6523 8.08524 13.2491 8.08524 15.2191Z" fill="#874FFF"/>
<path d="M102.253 25.7146C101.316 25.7146 100.473 25.5332 99.7272 25.1706C98.9998 24.8081 98.4161 24.3213 97.9758 23.7106C97.5548 23.0807 97.3443 22.3554 97.3443 21.5346C97.3443 20.4659 97.6889 19.5975 98.3778 18.9294C99.0669 18.2614 100.052 17.8034 101.335 17.5553L104.694 16.8681C105.364 16.7346 105.823 16.5246 106.072 16.2383C106.32 15.952 106.445 15.5322 106.445 14.9786L106.79 18.3282L101.966 19.3589C101.316 19.4924 100.808 19.731 100.445 20.0746C100.1 20.4183 99.9281 20.8953 99.9281 21.506C99.9281 22.136 100.167 22.6417 100.646 23.0235C101.143 23.4052 101.813 23.5961 102.655 23.5961C103.344 23.5961 103.976 23.4433 104.55 23.138C105.143 22.8326 105.603 22.4126 105.928 21.8783C106.273 21.3248 106.445 20.695 106.445 19.9887V14.9786C106.445 14.2914 106.196 13.7572 105.698 13.3753C105.22 12.9746 104.56 12.7741 103.718 12.7741C102.646 12.7741 101.823 13.0413 101.249 13.5758C100.674 14.1102 100.34 14.864 100.244 15.8375L97.7175 15.494C97.8132 14.4824 98.1194 13.6139 98.6362 12.8887C99.1529 12.1443 99.842 11.5717 100.703 11.171C101.565 10.7701 102.588 10.5698 103.775 10.5698C105.459 10.5698 106.751 10.9991 107.651 11.858C108.55 12.7169 109 13.8239 109 15.1789V25.2851H106.502V23.4243C106.254 24.0541 105.746 24.5981 104.981 25.0562C104.234 25.4951 103.325 25.7146 102.253 25.7146Z" fill="black"/>
<path d="M76.9886 25.2851V10.9991H79.4862V12.6024C79.6774 12.0489 80.0986 11.5717 80.7494 11.171C81.4 10.7701 82.156 10.5698 83.0173 10.5698C83.8595 10.5698 84.6346 10.751 85.3427 11.1136C86.0509 11.4763 86.5102 12.0203 86.7207 12.7455C86.9695 12.0775 87.4289 11.5526 88.0987 11.171C88.7878 10.7701 89.5534 10.5698 90.3954 10.5698C91.85 10.5698 92.9601 10.9896 93.7257 11.8294C94.4912 12.6692 94.8739 13.8907 94.8739 15.494V25.2851H92.3189V15.8375C92.3189 14.8831 92.1084 14.1674 91.6874 13.6902C91.2854 13.1941 90.6921 12.946 89.9074 12.946C89.0462 12.946 88.3763 13.2513 87.8977 13.8621C87.4384 14.4537 87.2088 15.3222 87.2088 16.4673V25.2851H84.6536V15.8375C84.6536 14.8831 84.4431 14.1674 84.0221 13.6902C83.6202 13.1941 83.0268 12.946 82.2422 12.946C81.3809 12.946 80.7111 13.2513 80.2325 13.8621C79.7732 14.4537 79.5436 15.3222 79.5436 16.4673V25.2851H76.9886Z" fill="black"/>
<path d="M67.2188 30.4384C65.4388 30.4384 63.9937 30.0281 62.8836 29.2074C61.7735 28.3867 61.0655 27.2415 60.7593 25.7719L63.2569 25.2279C63.4675 26.1631 63.9173 26.8884 64.6062 27.4038C65.2952 27.9382 66.1661 28.2054 67.2188 28.2054C68.4818 28.2054 69.4293 27.8808 70.0608 27.2319C70.7115 26.6021 71.037 25.6574 71.037 24.3976V22.136C70.7499 22.8421 70.2139 23.4147 69.4292 23.8536C68.6637 24.2927 67.8024 24.5122 66.8454 24.5122C65.5822 24.5122 64.4723 24.2259 63.5153 23.6533C62.5583 23.0617 61.8119 22.2409 61.276 21.1911C60.7401 20.1415 60.4722 18.9294 60.4722 17.5553C60.4722 16.162 60.7401 14.9405 61.276 13.8907C61.8119 12.8409 62.5488 12.0299 63.4865 11.4573C64.4435 10.8656 65.5632 10.5698 66.8454 10.5698C67.8024 10.5698 68.6732 10.7891 69.458 11.2282C70.2617 11.648 70.8072 12.1729 71.0944 12.8027V10.9991H73.592V24.3976C73.592 25.6574 73.3432 26.7357 72.8455 27.6329C72.3479 28.549 71.6207 29.2456 70.6637 29.7228C69.7259 30.1998 68.5775 30.4384 67.2188 30.4384ZM67.1612 22.2505C68.3863 22.2505 69.3623 21.8209 70.0895 20.9621C70.836 20.1032 71.2092 18.9677 71.2092 17.5553C71.2092 16.1238 70.836 14.9786 70.0895 14.1198C69.3431 13.2609 68.367 12.8313 67.1612 12.8313C65.9363 12.8313 64.9507 13.2609 64.2042 14.1198C63.477 14.9786 63.1134 16.1238 63.1134 17.5553C63.1134 18.9677 63.4865 20.1032 64.233 20.9621C64.9795 21.8209 65.9556 22.2505 67.1612 22.2505Z" fill="black"/>
<path d="M55.3158 25.2684V10.9991H57.871V25.2851L55.3158 25.2684ZM55.2872 9.16692V5.10156H57.8997V9.16692H55.2872Z" fill="black"/>
<path d="M40.6411 25.2851V5.10156H43.3397V25.2851H40.6411ZM41.1867 16.7537V14.3201H52.182V16.7537H41.1867ZM41.1867 7.5636V5.10156H53.2443V7.5636H41.1867Z" fill="black"/>
</svg>
