<svg width="144" height="24" viewBox="0 0 144 24" fill="none" xmlns="http://www.w3.org/2000/svg">
<g clip-path="url(#clip0_99_68)">
<path fill-rule="evenodd" clip-rule="evenodd" d="M38.4808 0.0906982L26.202 23.9617H14.6688L19.8075 14.0685H19.5769C15.3376 19.5413 9.01241 23.1441 0 23.9617V14.2055C0 14.2055 5.76545 13.8668 9.1548 10.3231H0V0.0908868H10.289V8.50669L10.5199 8.50575L14.7244 0.0908868H22.5057V8.45333L22.7367 8.45296L27.0988 0.0906982H38.4808Z" fill="#080808"/>
<path d="M105.437 21.3268H108.751V2.4115H105.437V21.3268Z" fill="#080808"/>
<path fill-rule="evenodd" clip-rule="evenodd" d="M87.1696 21.1337C87.8899 21.4315 88.6222 21.5803 89.3667 21.5803C90.5967 21.5803 91.6971 21.2826 92.6682 20.6871C93.6392 20.0916 94.3917 19.2707 94.9259 18.2246C95.46 17.1704 95.727 15.9754 95.727 14.6395C95.727 13.3036 95.4519 12.1086 94.9016 11.0544C94.3514 10.0002 93.5867 9.18336 92.6075 8.60396C91.6284 8.0165 90.5158 7.72679 89.2695 7.73484C88.4766 7.73484 87.7159 7.88773 86.9876 8.19354C86.2592 8.49934 85.6524 8.9339 85.1668 9.49721C85.1294 9.5401 85.093 9.58342 85.0576 9.62716V2.42358H81.7318V21.3269H85.0334L85.0267 19.5609C85.1122 19.665 85.2034 19.7667 85.3004 19.8662C85.8264 20.4054 86.4495 20.8279 87.1696 21.1337ZM90.5683 18.0797C90.0262 18.4096 89.4071 18.5747 88.7112 18.5747C88.0234 18.5747 87.3922 18.4056 86.8176 18.0676C86.2431 17.7216 85.7859 17.2508 85.446 16.6553C85.1143 16.0599 84.9484 15.3839 84.9484 14.6274C84.9403 13.8709 85.1022 13.195 85.4339 12.5995C85.7738 11.9959 86.231 11.5292 86.8055 11.1992C87.38 10.8612 88.0152 10.6963 88.7112 10.7043C89.4071 10.6963 90.0262 10.8572 90.5683 11.1872C91.1186 11.509 91.5394 11.9718 91.8307 12.5753C92.13 13.1708 92.2798 13.8549 92.2798 14.6274C92.2798 15.3999 92.13 16.084 91.8307 16.6795C91.5394 17.275 91.1186 17.7417 90.5683 18.0797Z" fill="#080808"/>
<path d="M43.2815 3.55829H47.0685L50.4563 15.8619L54.0601 3.55829H57.216L61.1245 15.615L64.3775 3.55829H67.8489L62.7267 21.3269H59.4615L55.4872 9.54841L51.8388 21.3269H48.5372L43.2815 3.55829Z" fill="#080808"/>
<path fill-rule="evenodd" clip-rule="evenodd" d="M73.4415 21.6407C72.1224 21.6487 70.9329 21.3589 69.8728 20.7715C68.8209 20.176 67.9915 19.3512 67.3845 18.297C66.7857 17.2427 66.4863 16.0397 66.4863 14.6877C66.4863 13.3761 66.7939 12.189 67.4088 11.1268C68.0237 10.0645 68.8573 9.23566 69.9092 8.64015C70.9612 8.04465 72.1345 7.74689 73.4293 7.74689C74.8859 7.74689 76.1604 8.06879 77.2528 8.71258C78.3533 9.35636 79.1747 10.2697 79.7168 11.4527C80.2671 12.6276 80.4653 13.9756 80.3116 15.4964H69.9144C69.9435 16.1024 70.0955 16.6537 70.3705 17.1502C70.678 17.6974 71.1069 18.124 71.6571 18.4297C72.2073 18.7355 72.8224 18.8884 73.5021 18.8884C74.02 18.8804 74.5015 18.7919 74.9465 18.6229C75.3916 18.4459 75.7679 18.2084 76.0755 17.9108C76.3909 17.6129 76.6135 17.275 76.7429 16.8968H80.2145C80.0041 17.8222 79.5833 18.6471 78.9521 19.3713C78.3209 20.0875 77.5279 20.6468 76.5731 21.0492C75.6181 21.4515 74.5743 21.6487 73.4415 21.6407ZM70.3827 12.177C70.1887 12.5133 70.0544 12.8754 69.9796 13.2634H76.8716C76.8216 12.7732 76.6695 12.3266 76.4152 11.9235C76.124 11.4487 75.7275 11.0825 75.2257 10.825C74.724 10.5594 74.1576 10.4267 73.5264 10.4267C72.8548 10.4267 72.2439 10.5796 71.6936 10.8854C71.1433 11.1912 70.7063 11.6217 70.3827 12.177Z" fill="#080808"/>
<path d="M98.1667 8.02451C98.1667 6.94615 98.4136 5.98853 98.9072 5.1516C99.4008 4.30663 100.093 3.65077 100.983 3.18403C101.881 2.70923 102.929 2.46379 104.127 2.44769V5.38094C103.568 5.38899 103.091 5.50569 102.694 5.73101C102.306 5.94829 102.006 6.26616 101.796 6.68462C101.602 7.06987 101.498 7.51649 101.482 8.02451H104.054V10.8129H101.48V21.3268H98.1667V10.8129H96.0304V8.02451H98.1667Z" fill="#080808"/>
<path fill-rule="evenodd" clip-rule="evenodd" d="M117.175 21.6165C115.823 21.6165 114.614 21.3227 113.545 20.7353C112.485 20.1398 111.652 19.3189 111.045 18.2729C110.446 17.2186 110.147 16.0236 110.147 14.6877C110.147 13.3438 110.446 12.1448 111.045 11.0905C111.652 10.0283 112.485 9.20344 113.545 8.61599C114.614 8.02853 115.823 7.7348 117.175 7.7348C118.534 7.7348 119.748 8.02853 120.816 8.61599C121.893 9.20344 122.73 10.0243 123.329 11.0785C123.928 12.1327 124.231 13.3358 124.239 14.6877C124.231 16.0236 123.928 17.2186 123.329 18.2729C122.738 19.3189 121.905 20.1398 120.828 20.7353C119.752 21.3227 118.534 21.6165 117.175 21.6165ZM117.175 18.5867C117.887 18.5867 118.518 18.4257 119.068 18.1038C119.619 17.7739 120.043 17.3151 120.343 16.7277C120.642 16.1322 120.792 15.4523 120.792 14.6877C120.792 13.9152 120.642 13.2311 120.343 12.6356C120.043 12.0401 119.619 11.5814 119.068 11.2595C118.518 10.9296 117.887 10.7646 117.175 10.7646C116.471 10.7646 115.844 10.9296 115.293 11.2595C114.751 11.5814 114.33 12.0401 114.031 12.6356C113.732 13.2311 113.586 13.9152 113.594 14.6877C113.594 15.4523 113.744 16.1322 114.043 16.7277C114.351 17.3151 114.771 17.7739 115.306 18.1038C115.848 18.4257 116.471 18.5867 117.175 18.5867Z" fill="#080808"/>
<path d="M127.82 8.02454H124.13L128.123 21.3268H131.352L133.979 12.8307L136.815 21.3268H139.995L144 8.02454H140.663L138.391 16.3044L135.88 8.02454H132.651L130.152 16.4868L127.82 8.02454Z" fill="#080808"/>
</g>
<defs>
<clipPath id="clip0_99_68">
<rect width="144" height="24" fill="white"/>
</clipPath>
</defs>
</svg>
